<?xml version="1.0" encoding="UTF-8"?>
<svg width="32px" height="32px" viewBox="0 0 32 32" version="1.1" xmlns="http://www.w3.org/2000/svg" xmlns:xlink="http://www.w3.org/1999/xlink">
    <title>Tabs</title>
    <g id="selfmade" stroke="none" stroke-width="1" fill="none" fill-rule="evenodd">
        <g id="Tabs" fill-rule="nonzero">
            <g id="InlineMediaParent" transform="translate(1.000000, 1.000000)" fill="#A46CDC">
                <polygon id="Path" points="0 1 3 1 3 29 0 29"></polygon>
                <polygon id="Path" points="27 2 30 2 30 30 27 30"></polygon>
                <polygon id="Path" points="0 27 11 27 11 30 0 30"></polygon>
                <polygon id="Path" points="19 27 30 27 30 30 19 30"></polygon>
                <polygon id="Path" points="0 0 11 0 11 3 0 3"></polygon>
                <polygon id="Path" points="19 0 30 0 30 3 19 3"></polygon>
            </g>
            <g id="CardsInlineMedia">
                <polygon id="Path" fill="#FFFFFF" points="4 4 28 4 28 28 4 28"></polygon>
                <path d="M0,0 L0,32 L32,32 L32,0 L0,0 Z M2,2 L30,2 L30,30 L2,30 L2,2 Z" id="Shape" fill-opacity="0" fill="#999999"></path>
                <polygon id="Path" fill="#B9B9B9" points="8 14 24 14 24 23 8 23"></polygon>
                <polygon id="Path" fill="#B9B9B9" points="8 10 13 10 13 14 8 14"></polygon>
                <polygon id="Path" fill="#FF8700" points="14 11 18 11 18 14 14 14"></polygon>
                <polygon id="Path" fill="#FF8700" points="19 11 23 11 23 14 19 14"></polygon>
            </g>
        </g>
    </g>
</svg>