<?xml version="1.0" encoding="UTF-8"?>
<svg width="32px" height="32px" viewBox="0 0 32 32" version="1.1" xmlns="http://www.w3.org/2000/svg" xmlns:xlink="http://www.w3.org/1999/xlink">
    <title>MenuPortfolio</title>
    <g id="selfmade" stroke="none" stroke-width="1" fill="none" fill-rule="evenodd">
        <g id="MenuPortfolio">
            <polygon id="Path" fill="#FFFFFF" fill-rule="nonzero" points="4 4 28 4 28 28 4 28"></polygon>
            <path d="M2,2 L2,30 L30,30 L30,2 L2,2 Z M4,4 L28,4 L28,28 L4,28 L4,4 Z" id="Shape" fill="#999999" fill-rule="nonzero"></path>
            <path d="M0,0 L0,32 L32,32 L32,0 L0,0 Z M2,2 L30,2 L30,30 L2,30 L2,2 Z" id="Shape" fill-opacity="0" fill="#999999" fill-rule="nonzero"></path>
            <g id="Group-9" transform="translate(8.000000, 8.000000)" fill="#FBAA04" fill-rule="nonzero">
                <polygon id="Path" points="0 0 4 0 4 4 2.4938913 4 0 4"></polygon>
                <polygon id="Path" points="6 0 10 0 10 4 8.4938913 4 6 4"></polygon>
                <polygon id="Path" points="12 0 16 0 16 4 14.4938913 4 12 4"></polygon>
                <polygon id="Path" points="0 6 4 6 4 10 2.4938913 10 0 10"></polygon>
                <polygon id="Path" points="6 6 10 6 10 10 8.4938913 10 6 10"></polygon>
                <polygon id="Path" points="12 6 16 6 16 10 14.4938913 10 12 10"></polygon>
                <polygon id="Path" points="0 12 4 12 4 16 2.4938913 16 0 16"></polygon>
                <polygon id="Path" points="6 12 10 12 10 16 8.4938913 16 6 16"></polygon>
                <polygon id="Path" points="12 12 16 12 16 16 14.4938913 16 12 16"></polygon>
            </g>
            <g id="Group-10" transform="translate(16.000000, 16.000000)">
                <rect id="Rectangle" stroke="#FFFFFF" fill="#FFFFFF" x="0.5" y="0.5" width="15" height="15"></rect>
                <g id="file-spreadsheet-solid" transform="translate(4.000000, 2.000000)" fill="#A46CDC" fill-rule="nonzero">
                    <path d="M6.9375,8.625 L5.8125,8.625 L5.8125,9.75 L6.9375,9.75 L6.9375,8.625 Z M6,0 L6,3 L9,3 L6,0 Z M6.9375,6.75 L5.8125,6.75 L5.8125,7.875 L6.9375,7.875 L6.9375,6.75 Z M5.0625,6.75 L3.9375,6.75 L3.9375,7.875 L5.0625,7.875 L5.0625,6.75 Z M5.0625,8.625 L3.9375,8.625 L3.9375,9.75 L5.0625,9.75 L5.0625,8.625 Z M3.1875,8.625 L2.0625,8.625 L2.0625,9.75 L3.1875,9.75 L3.1875,8.625 Z M5.25,3 L5.25,0 L1.125,0 C0.503671875,0 0,0.503671875 0,1.125 L0,10.875 C0,11.4960938 0.503671875,12 1.125,12 L7.875,12 C8.49632812,12 9,11.4963281 9,10.875 L9,3.75 L6.02109375,3.75 C5.58515625,3.75 5.25,3.41484375 5.25,3 Z M7.6875,5.625 L7.6875,10.125 C7.6875,10.3330078 7.52050781,10.5 7.3125,10.5 L1.6875,10.5 C1.47949219,10.5 1.3125,10.3330078 1.3125,10.125 L1.3125,5.625 C1.3125,5.41699219 1.47949219,5.25 1.6875,5.25 L7.3125,5.25 C7.52109375,5.25 7.6875,5.41640625 7.6875,5.625 Z M3.1875,6.75 L2.0625,6.75 L2.0625,7.875 L3.1875,7.875 L3.1875,6.75 Z" id="Shape"></path>
                </g>
            </g>
        </g>
    </g>
</svg>