<?xml version="1.0" encoding="UTF-8"?>
<svg width="32px" height="32px" viewBox="0 0 32 32" version="1.1" xmlns="http://www.w3.org/2000/svg" xmlns:xlink="http://www.w3.org/1999/xlink">
    <title>TextPreview</title>
    <g id="selfmade" stroke="none" stroke-width="1" fill="none" fill-rule="evenodd">
        <g id="TextPreview" fill-rule="nonzero">
            <polygon id="Path" fill="#FFFFFF" points="4 4 28 4 28 28 4 28"></polygon>
            <path d="M2,2 L2,30 L30,30 L30,2 L2,2 Z M4,4 L28,4 L28,28 L4,28 L4,4 Z" id="Shape" fill="#999999"></path>
            <path d="M0,0 L0,32 L32,32 L32,0 L0,0 Z M2,2 L30,2 L30,30 L2,30 L2,2 Z" id="Shape" fill-opacity="0" fill="#999999"></path>
            <polygon id="Path" fill="#515151" points="6 6 26 6 26 10 6 10"></polygon>
            <polygon id="Path" fill="#B9B9B9" points="6 12 26 12 26 16 6 16"></polygon>
            <g id="caret-down-solid-(1)" transform="translate(11.000000, 18.000000)" fill="#FF8700">
                <path d="M0.67286105,0 L9.32713895,0 C9.92584142,0 10.2251927,1.01986362 9.80139203,1.61755114 L5.47593483,7.72250222 C5.21358206,8.09249926 4.78641794,8.09249926 4.52406517,7.72250222 L0.198607967,1.61755114 C-0.225192661,1.01986362 0.0741585762,0 0.67286105,0 Z" id="Path"></path>
            </g>
        </g>
    </g>
</svg>