<?xml version="1.0" encoding="UTF-8"?>
<svg width="32px" height="33px" viewBox="0 0 32 33" version="1.1" xmlns="http://www.w3.org/2000/svg" xmlns:xlink="http://www.w3.org/1999/xlink">
    <title>HeroCarousel</title>
    <g id="selfmade" stroke="none" stroke-width="1" fill="none" fill-rule="evenodd">
        <g id="HeroCarousel">
            <polygon id="Path" fill="#FFFFFF" fill-rule="nonzero" points="4 5 28 5 28 29 4 29"></polygon>
            <path d="M0,1 L0,33 L32,33 L32,1 L0,1 Z M2,3 L30,3 L30,31 L2,31 L2,3 Z" id="Shape" fill-opacity="0" fill="#999999" fill-rule="nonzero"></path>
            <g id="InlineMediaParent" transform="translate(1.000000, 1.000000)" fill="#A46CDC" fill-rule="nonzero">
                <polygon id="Path" points="0 1 3 1 3 29 0 29"></polygon>
                <polygon id="Path" points="27 2 30 2 30 30 27 30"></polygon>
                <polygon id="Path" points="0 27 11 27 11 30 0 30"></polygon>
                <polygon id="Path" points="19 27 30 27 30 30 19 30"></polygon>
                <polygon id="Path" points="0 0 11 0 11 3 0 3"></polygon>
                <polygon id="Path" points="19 0 30 0 30 3 19 3"></polygon>
            </g>
            <polygon id="Path" fill="#9CC8FF" fill-rule="nonzero" points="0 6 32 6 32 17 0 17"></polygon>
            <polygon id="Path" fill="#5599FF" fill-rule="nonzero" points="0 0 32 0 32 15 0 15"></polygon>
            <polygon id="Path" fill="#FFFFFF" fill-rule="nonzero" points="7 10 25 10 25 28 7 28"></polygon>
            <polygon id="Path" fill="#515151" fill-rule="nonzero" points="9 12 23 12 23 19 9 19"></polygon>
            <g id="Group-3" transform="translate(7.000000, 23.000000)" fill="#FF8700">
                <rect id="Rectangle" x="0" y="0" width="3" height="3"></rect>
                <rect id="Rectangle" x="15" y="0" width="3" height="3"></rect>
                <rect id="Rectangle" x="5" y="0" width="3" height="3"></rect>
                <rect id="Rectangle" x="10" y="0" width="3" height="3"></rect>
            </g>
        </g>
    </g>
</svg>