<?xml version="1.0" encoding="UTF-8"?>
<svg width="32px" height="32px" viewBox="0 0 32 32" version="1.1" xmlns="http://www.w3.org/2000/svg" xmlns:xlink="http://www.w3.org/1999/xlink">
    <title>MediaLayoutLeft</title>
    <g id="selfmade" stroke="none" stroke-width="1" fill="none" fill-rule="evenodd">
        <g id="MediaLayoutLeft">
            <g id="bg" fill-rule="nonzero">
                <polygon id="Path" fill="#FFFFFF" points="4 4 28 4 28 28 4 28"></polygon>
                <path d="M2,2 L2,30 L30,30 L30,2 L2,2 Z M4,4 L28,4 L28,28 L4,28 L4,4 Z" id="Shape" fill="#999999"></path>
                <path d="M0,0 L0,32 L32,32 L32,0 L0,0 Z M2,2 L30,2 L30,30 L2,30 L2,2 Z" id="Shape" fill-opacity="0" fill="#999999"></path>
            </g>
            <g id="text" transform="translate(19, 6)" fill="#515151" fill-rule="nonzero">
                <polygon id="Path" points="0 0 7 0 7 20 0 20"></polygon>
            </g>
            <g id="small-img" transform="translate(6, 6)">
                <g id="img" transform="translate(2, 2)">
                    <g id="Group-Copy" transform="translate(0, 1)"></g>
                    <polygon id="Path-Copy-50" fill="#9CC8FF" fill-rule="nonzero" points="0 0 9 0 9 8 0 8"></polygon>
                </g>
                <g id="img" fill="#5599FF" fill-rule="nonzero">
                    <polygon id="Path-Copy-50" points="0 0 9 0 9 8 0 8"></polygon>
                </g>
            </g>
        </g>
    </g>
</svg>