<?xml version="1.0" encoding="UTF-8"?>
<svg width="32px" height="32px" viewBox="0 0 32 32" version="1.1" xmlns="http://www.w3.org/2000/svg" xmlns:xlink="http://www.w3.org/1999/xlink">
    <title>CardsCarouselInlineMedia</title>
    <g id="selfmade" stroke="none" stroke-width="1" fill="none" fill-rule="evenodd">
        <g id="CardsCarouselInlineMedia" fill-rule="nonzero">
            <polygon id="Path" fill="#FFFFFF" points="4 4 28 4 28 28 4 28"></polygon>
            <path d="M2,2 L2,30 L30,30 L30,2 L2,2 Z M4,4 L28,4 L28,28 L4,28 L4,4 Z" id="Shape" fill="#999999"></path>
            <path d="M0,0 L0,32 L32,32 L32,0 L0,0 Z M2,2 L30,2 L30,30 L2,30 L2,2 Z" id="Shape" fill-opacity="0" fill="#999999"></path>
            <polygon id="Path" fill="#515151" points="11 7 21 7 21 18 11 18"></polygon>
            <polygon id="Path" fill="#FBAA04" points="11 6 21 6 21 10 11 10"></polygon>
            <polygon id="Path" fill="#B9B9B9" points="4 8 9 8 9 18 4 18"></polygon>
            <polygon id="Path" fill="#B9B9B9" points="23 8 28 8 28 18 23 18"></polygon>
            <g id="Group-13" transform="translate(7.000000, 21.000000)" fill="#FF8700">
                <polygon id="Path" points="0 0 3 0 3 3 0 3"></polygon>
                <polygon id="Path" points="5 0 8 0 8 3 5 3"></polygon>
                <polygon id="Path" points="10 0 13 0 13 3 10 3"></polygon>
                <polygon id="Path" points="15 0 18 0 18 3 15 3"></polygon>
            </g>
        </g>
    </g>
</svg>