<?xml version="1.0" encoding="UTF-8"?>
<svg width="32px" height="32px" viewBox="0 0 32 32" version="1.1" xmlns="http://www.w3.org/2000/svg" xmlns:xlink="http://www.w3.org/1999/xlink">
    <title>Contain</title>
    <g id="selfmade" stroke="none" stroke-width="1" fill="none" fill-rule="evenodd">
        <g id="Contain" transform="translate(0.000000, 0.000000)" fill-rule="nonzero">
            <polygon id="Path" fill="#FFFFFF" points="4 4 28 4 28 28 4 28"></polygon>
            <path d="M2,2 L2,30 L30,30 L30,2 L2,2 Z M4,4 L28,4 L28,28 L4,28 L4,4 Z" id="Shape" fill="#999999"></path>
            <path d="M0,0 L0,32 L32,32 L32,0 L0,0 Z M2,2 L30,2 L30,30 L2,30 L2,2 Z" id="Shape" fill-opacity="0" fill="#999999"></path>
            <polygon id="Path" fill="#5599FF" points="7 7 25 7 25 16 7 16"></polygon>
        </g>
    </g>
</svg>