<?xml version="1.0" encoding="UTF-8"?>
<svg width="33px" height="33px" viewBox="0 0 33 33" version="1.1" xmlns="http://www.w3.org/2000/svg" xmlns:xlink="http://www.w3.org/1999/xlink">
    <title>AlignTop</title>
    <g id="selfmade" stroke="none" stroke-width="1" fill="none" fill-rule="evenodd">
        <g id="AlignTop" transform="translate(16.152484, 16.075425) rotate(90.000000) translate(-16.152484, -16.075425) translate(0.152484, 0.075425)" fill-rule="nonzero">
            <polygon id="Path" fill="#FFFFFF" points="4 4 28 4 28 28 4 28"></polygon>
            <path d="M2,2 L2,30 L30,30 L30,2 L2,2 Z M4,4 L28,4 L28,28 L4,28 L4,4 Z" id="Shape" fill="#999999"></path>
            <path d="M0,0 L0,32 L32,32 L32,0 L0,0 Z M2,2 L30,2 L30,30 L2,30 L2,2 Z" id="Shape" fill-opacity="0" fill="#999999"></path>
            <polygon id="Path" fill="#515151" points="2 2 8 2 8 30 2 30"></polygon>
            <polygon id="Path" fill="#515151" points="8 14 14 14 14 18 8 18"></polygon>
        </g>
    </g>
</svg>