<?xml version="1.0" encoding="UTF-8"?>
<svg width="32px" height="32px" viewBox="0 0 32 32" version="1.1" xmlns="http://www.w3.org/2000/svg" xmlns:xlink="http://www.w3.org/1999/xlink">
    <title>ChildCard</title>
    <g id="selfmade" stroke="none" stroke-width="1" fill="none" fill-rule="evenodd">
        <g id="ChildCard">
            <polygon id="Path" fill="#FFFFFF" fill-rule="nonzero" points="4 4 28 4 28 28 4 28"></polygon>
            <path d="M2,2 L2,30 L30,30 L30,2 L2,2 Z M4,4 L28,4 L28,28 L4,28 L4,4 Z" id="Shape" fill="#999999" fill-rule="nonzero"></path>
            <path d="M0,0 L0,32 L32,32 L32,0 L0,0 Z M2,2 L30,2 L30,30 L2,30 L2,2 Z" id="Shape" fill-opacity="0" fill="#999999" fill-rule="nonzero"></path>
            <g id="Group-12" transform="translate(8.000000, 0.000000)">
                <path d="M15.5,0.5 L15.5,21.5 L0.5,21.5 L0.5,0.5 L15.5,0.5 Z" id="Path" stroke="#515151" fill="#FFFFFF" fill-rule="nonzero"></path>
                <g id="img" transform="translate(1.000000, 1.000000)">
                    <g id="Group-Copy"></g>
                    <polygon id="Path-Copy-50" fill="#5599FF" fill-rule="nonzero" points="0 0 6.74128836 0 14 0 14 6 0 6"></polygon>
                </g>
                <g id="img" transform="translate(3.000000, 13.000000)">
                    <g id="Group-Copy"></g>
                    <polygon id="Path-Copy-50" fill="#B9B9B9" fill-rule="nonzero" points="0 0 4.81520597 0 10 0 10 2 0 2"></polygon>
                    <polygon id="Path-Copy-50" fill="#B9B9B9" fill-rule="nonzero" points="0 2 2.88912358 2 6 2 6 4 0 4"></polygon>
                </g>
                <polygon id="Path-Copy-50" fill="#515151" fill-rule="nonzero" points="3 9 7.81520597 9 13 9 13 11 3 11"></polygon>
            </g>
        </g>
    </g>
</svg>