<?xml version="1.0" encoding="UTF-8"?>
<svg width="32px" height="32px" viewBox="0 0 32 32" version="1.1" xmlns="http://www.w3.org/2000/svg" xmlns:xlink="http://www.w3.org/1999/xlink">
    <title>Modal</title>
    <g id="selfmade" stroke="none" stroke-width="1" fill="none" fill-rule="evenodd">
        <g id="Modal">
            <polygon id="Path" fill="#B9B9B9" fill-rule="nonzero" points="4 4 28 4 28 28 4 28"></polygon>
            <path d="M2,2 L2,30 L30,30 L30,2 L2,2 Z M4,4 L28,4 L28,28 L4,28 L4,4 Z" id="Shape" fill="#999999" fill-rule="nonzero"></path>
            <path d="M0,0 L0,32 L32,32 L32,0 L0,0 Z M2,2 L30,2 L30,30 L2,30 L2,2 Z" id="Shape" fill-opacity="0" fill="#999999" fill-rule="nonzero"></path>
            <g id="Group-12" transform="translate(5.000000, 0.000000)">
                <polygon id="Path-Copy-50" fill="#515151" fill-rule="nonzero" opacity="0.500674293" points="0 3 10.5934531 3 22 3 22 22 0 22"></polygon>
                <path d="M20.5,0.5 L20.5,18.5 L1.5,18.5 L1.5,0.5 L20.5,0.5 Z" id="Path" stroke="#515151" fill="#FFFFFF" fill-rule="nonzero"></path>
                <g id="img" transform="translate(4.000000, 7.000000)">
                    <g id="Group-Copy" transform="translate(2.000000, 0.000000)"></g>
                    <polygon id="Path-Copy-50" fill="#B9B9B9" fill-rule="nonzero" points="0 0 6.25976776 0 13 0 13 2 0 2"></polygon>
                    <polygon id="Path-Copy-50" fill="#B9B9B9" fill-rule="nonzero" points="0 2 3.4669483 2 7.2 2 7.2 4 0 4"></polygon>
                    <polygon id="Path-Copy-50" fill="#FF8700" fill-rule="nonzero" points="7 7 10.8521648 7 15 7 15 10 7 10"></polygon>
                </g>
                <polygon id="Path-Copy-50" fill="#515151" fill-rule="nonzero" points="2 1 10.6673707 1 20 1 20 5 2 5"></polygon>
            </g>
        </g>
    </g>
</svg>